<?xml version="1.0" encoding="utf-8"?>
<!-- Generator: Adobe Illustrator 23.0.6, SVG Export Plug-In . SVG Version: 6.00 Build 0)  -->
<svg version="1.1" id="Layer_1" xmlns="http://www.w3.org/2000/svg" xmlns:xlink="http://www.w3.org/1999/xlink" x="0px" y="0px"
	 viewBox="0 0 949.2 972" style="enable-background:new 0 0 949.2 972;" xml:space="preserve">
<style type="text/css">
	.st0{fill:none;stroke:#008082;stroke-width:4;stroke-linecap:round;stroke-miterlimit:10;}
	.st1{fill:none;stroke:#008082;stroke-width:3;stroke-linecap:round;stroke-miterlimit:10;}
	.st2{fill:none;stroke:#00BFBF;stroke-width:3;stroke-linecap:round;stroke-miterlimit:10;}
	.st3{opacity:0.5;}
	.st4{fill:#FFFFFF;}
</style>
<title>peace</title>
<path class="st0" d="M331-2904.2c1.8-26.5,21.8-45.3,37.7-59.8s47.9-79.8,60.3-95.9c12.4-16.1,32.4-25.1,43.9-33.6s38-41,61.5-39.9
	c23.4,1.1,39.5,30.9,33.8,63c-7,38.8-73.3,83.3-76.4,85.1s-16.1,22.3-19.1,33.4c-3,11.1,18.5,8.2,23.1,35.2s13.8,136.1-2.3,171.5
	c-16.1,35.4-123,56.1-143,36.9s-34.6-123-40-153s0-85.3,3.8-104.6c3.8-19.3,18.5-66.9,17.9-94.1s-30.9-146.7-35.1-161.9
	c-4.2-15.2-12.8-125.9-13.4-144.9s3.3-59.1,40.7-60.1s36.4,74.9,39,97c2.6,22.1,11.6,63.3,30.6,134.5c19,71.2,55.8,75.5,60.7,74.2
	S470.8-3221,476-3250s34.4-112.3,45.3-153.4c10.9-41.1,33.5-57.6,64.3-40.1s-10.7,136.5-15.4,169.2s-14.2,86.4-14.2,86.4
	c19.9-9,47.2-3.2,62.5,13.2c15.3,16.4,4.8,65.3,4.8,65.3c15.4,1.5,26.9,10,33.8,38.4c6.9,28.4,10.1,119.3,7.5,172.6
	c-2.6,53.3-63.7,195.5-63.7,195.5s-7.8,17.3-41,9.4"/>
<path class="st1" d="M648.1-2999.7c0,0-36.9,1.4-30.7-4.8s28.3-36.9,28.3-36.9s-68.3,59.9-80,66.8c-18.2,10.7-48.2,28.6-56.7-12.1"
	/>
<path class="st1" d="M549.3-3182.4c0,0-34.4,36.3-38.9,45.8"/>
<path class="st1" d="M607.9-3110.1c0,0-27.3,9.5-30.4,16.3"/>
<path class="st2" d="M370.5-3148.7c0,0-24.3,12.1-28.1,19.2"/>
<path class="st2" d="M331.5-3245.9c0,0-12.1,6.4-18.5,12.8"/>
<path class="st2" d="M337.2-3341.1c0,0-26,5.6-32.8,4.9"/>
<path class="st2" d="M549.3-3344c0,0-25.9-2.1-29.5-5.7"/>
<path class="st2" d="M504.8-3093.8c0,0,6.8,43.5,55.1-1"/>
<path class="st2" d="M556-3028.1c0,0,15.4,13.1,3,26c-7.9,8-16.5,15.1-25.9,21.2"/>
<path class="st2" d="M517-3264.4c0,0,22.4,9,31.5,7.8"/>
<path class="st2" d="M459.8-2917.8c0,0-21,54.8-44.1,78.6"/>
<path class="st2" d="M449.8-2915.3c0,0-42.6,42.2-59.4,47.1"/>
<path class="st0" d="M1576.2-2904.2c1.8-26.5,21.8-45.3,37.7-59.8c16-14.5,47.9-79.8,60.3-95.9c12.4-16.1,32.4-25.1,43.9-33.6
	s38-41,61.5-39.9c23.5,1.1,39.6,30.9,33.8,63c-7,38.8-73.3,83.3-76.4,85.1s-16.1,22.3-19.1,33.4c-3,11.1,18.5,8.2,23.1,35.2
	s13.8,136.1-2.3,171.5c-16.1,35.4-123,56.1-143,36.9s-34.6-123-40-153s0-85.3,3.8-104.6c3.8-19.2,18.5-66.9,17.9-94.1
	s-30.9-146.6-35.1-161.8c-4.2-15.2-12.8-125.9-13.4-144.9c-0.5-19,3.2-59.1,40.6-60.1s36.4,74.9,39,97
	c2.6,22.1,11.6,63.3,30.6,134.5c19,71.2,55.8,75.5,60.7,74.2s16.1-99.8,21.3-128.8c5.2-29.1,34.3-112.3,45.3-153.4
	c11-41.1,33.5-57.6,64.3-40.1c30.8,17.6-10.7,136.5-15.4,169.2c-4.7,32.7-14.2,86.4-14.2,86.4c19.9-9,47.2-3.2,62.5,13.2
	c15.3,16.4,4.8,65.3,4.8,65.3c15.4,1.5,26.9,10,33.8,38.4c6.9,28.4,10.1,119.3,7.5,172.6s-63.7,195.5-63.7,195.5s-7.8,17.3-41,9.4"
	/>
<path class="st1" d="M1893.3-2999.7c0,0-36.9,1.4-30.7-4.8s28.3-36.9,28.3-36.9s-68.3,59.9-80,66.8c-18.2,10.7-48.2,28.6-56.7-12.1"
	/>
<path class="st1" d="M1794.6-3182.4c0,0-34.4,36.3-38.9,45.8"/>
<path class="st1" d="M1853.1-3110.1c0,0-27.3,9.5-30.4,16.3"/>
<path class="st2" d="M1615.7-3148.7c0,0-24.3,12.1-28.1,19.2"/>
<path class="st2" d="M1576.7-3245.9c0,0-12.2,6.4-18.5,12.8"/>
<path class="st2" d="M1582.5-3341.1c0,0-26,5.6-32.8,4.9"/>
<path class="st2" d="M1794.6-3344c0,0-25.9-2.1-29.5-5.7"/>
<path class="st2" d="M1750-3093.8c0,0,6.8,43.5,55.1-1"/>
<path class="st2" d="M1801.2-3028.1c0,0,15.4,13.1,3,26c-7.9,8-16.5,15.1-25.9,21.2"/>
<path class="st2" d="M1762.2-3264.4c0,0,22.4,9,31.5,7.8"/>
<path class="st2" d="M1705-2917.8c0,0-21,54.8-44.1,78.6"/>
<path class="st2" d="M1695-2915.3c0,0-42.6,42.2-59.4,47.1"/>
<g>
</g>
<g class="st3">
</g>
<path class="st0" d="M209-1990.2l3.5,301.2l247.8,28.1c0,0,0.3,49.6,0.3,54.2c0,4.6,3.7,12.8,18.5,12.8c10,0,10.7-22.3,18-41.3
	c6.8-17.8,28.4-48.8,53.7-48.8c39.2,0,59.7,29,67.3,53.3c2.8,8.8,20.6,12.4,40.5,12.4c31,0,245.8-2.5,245.8-14.3s3.8-52.3-11.1-67.4
	c-14.9-14.9-30.8-18.5-30.8-30.6s0-54.4,0-54.4s1.7-18.5-30.2-18.5c-31.9,0-91,0-91,0s-32.8-3.8-32.8,19.5c0,23.5,0,124.7,0,124.7"
	/>
<path class="st0" d="M692.4-1801.2L472-1816.6l-13.9-81.7l181.6,4.9l18,65.9c0,0-149-6.9-175.4-3.5"/>
<path class="st0" d="M772.7-1803.5c0,0-88.6-8.7-96.3-20.6c-7.7-11.8-20.6-68.5-20.6-68.5s14.4-7.9,7.5-25.1
	c-6.9-17.4-20.8-16.6-31.2-23.6c-10.4-6.9-35.4-65.1-89.4-86.7c-53.9-21.3-159.4-24.7-159.4-24.7"/>
<path class="st0" d="M213.5-1675.7c0,0-8.8,45.5,16.2,51.3c24.9,5.9,184.8,25,207.9,26.1"/>
<path class="st0" d="M322.6-1734.7v-149.8c0,0,13.1-13.1,13.1-38.3s0-159.5,0-159.5s-14.7-11.5-10.3-18.5c4.4-7.1,16.4-6.5,21.3,0
	s10.9,18,10.9,28.4s0,149.7,0,149.7l14.5,20.7v16.5v160.8c0,0-17.6,8.4-14.5,14.5"/>
<path class="st0" d="M599.3-2000v-63.1c0,0-3.2-19.5-14.9-21.2c-11.7-1.8-14,9.2-11.7,12s5.3,10.7,5.3,26.5s0,27,0,27"/>
<path class="st2" d="M416.6-1898.2h-33.4v192.4c0,0,70.9,8.5,77.9,8.5v-77.8l-16.5-32.9l-16.2-90.1H416.6z"/>
<path class="st0" d="M636.5-1614.5c0,0,7.9,43.2,27.3,47.8s223.6,1.1,233.8-18.2s7.7-40.4,7.7-40.4"/>
<path class="st2" d="M208.8-2020.2c0-44.4,72.9-32.5,72.9-32.5l-145.9-15.8l-117.9,48.2c0,0,118.4-46.6,118.4-29.4s0,327.8,0,327.8
	s44.5-10.9,62.9,0c18.4,10.9-26.4,18-154.7,0"/>
<path class="st0" d="M678.1-2056.5h51.2v19c0,0-31.1,16.6-31.1,53.6"/>
<path class="st0" d="M743.3-2013.6c0,0,1.1,29.6,30.9,29.6c18.8,0,30.9-11.3,30.9-25.9c0-10.4-4.8-26.6-35.2-25.6
	c-13.9,0.5-22.2,10.1-22.2,10.1l-0.2-31.2h48.9"/>
<path class="st2" d="M679.6-1956.4c0,0-2.5-7.9,8.8-7.9c9,0,9.6,3.7,9.6,5.6c0,7.9-18.7,6.4-18.7,16.1h20.1"/>
<polyline class="st2" points="702.2,-1956.2 710.1,-1964.1 710.1,-1942.8 716.4,-1942.8 "/>
<line class="st2" x1="729.3" y1="-1942.6" x2="743.2" y2="-1960.6"/>
<path class="st2" d="M727.6-1953.8c1.1,0.4,2.4,0.3,3.4-0.2c1.1-0.6,2.6-1.6,2.6-2.7c0-1.9-1.6-3.9-4-3.9s-4.1,2.2-4.1,4
	C725.6-1955.4,726.2-1954.4,727.6-1953.8z"/>
<path class="st2" d="M741.1-1942.8c1.1,0.4,2.4,0.3,3.4-0.2c1.1-0.6,2.6-1.6,2.6-2.7c0-1.9-1.6-3.9-4-3.9s-4.1,2.2-4.1,4
	C739.1-1944.5,739.7-1943.4,741.1-1942.8z"/>
<polyline class="st2" points="757.7,-1942.6 768.6,-1953.6 779.5,-1942.8 "/>
<ellipse class="st0" cx="556.9" cy="-1586.7" rx="59.8" ry="81.7"/>
<ellipse class="st0" cx="138.6" cy="-1642.8" rx="42.2" ry="57.7"/>
<ellipse class="st0" cx="60.5" cy="-1658.6" rx="30.6" ry="41.9"/>
<path class="st2" d="M842.1-1784.6H739.5c0,0-14-2.9-14,14s0,101.9,0,101.9s0.6,9.8,9.8,9.8c9.1,0,106.9-4.7,106.9-4.7"/>
<path class="st0" d="M886.1-1570.4c0,0-15.5,46.7-48.4,46.7c-32.9,0-45.1-36.7-45.1-36.7"/>
<line class="st2" x1="842.1" y1="-1768.6" x2="740.3" y2="-1768.6"/>
<line class="st2" x1="842.1" y1="-1754.3" x2="740.3" y2="-1754.3"/>
<line class="st2" x1="842.1" y1="-1721.8" x2="740.3" y2="-1718.8"/>
<line class="st2" x1="842.1" y1="-1698.2" x2="740.3" y2="-1694.4"/>
<path class="st0" d="M498.2-1658.6c0,0,18.7-51.6,34.7-51.6s85.3,0,85.3,0"/>
<path class="st0" d="M327.6-1665.4c0,0-10.5,23.5-1.2,45.2"/>
<path class="st0" d="M335.5-1662.6c0,0-9.9,23.7,0,45.2"/>
<path class="st0" d="M247.1-1676.7c0,0-10.5,23.5-1.2,45.2"/>
<path class="st0" d="M255-1673.9c0,0-9.9,23.7,0,45.2"/>
<path class="st0" d="M410.9-1655.5c0,0-10.5,23.5-1.2,45.2"/>
<path class="st0" d="M418.8-1652.7c0,0-9.9,23.7,0,45.2"/>
<image style="overflow:visible;opacity:0.5;" width="418" height="410" xlink:href="../../training-img.png"  transform="matrix(2.7577 0 0 2.7577 -2499.2896 -1411.2094)">
</image>
<circle class="st2" cx="861.1" cy="-2019.1" r="37.4"/>
<circle class="st2" cx="861.2" cy="-2027.8" r="10.2"/>
<path class="st2" d="M844-2000.2c0,0,2.8-13.5,17.2-13.5s18.1,13.5,18.1,13.5"/>
<circle class="st4" cx="891" cy="-1990.5" r="23.2"/>
<circle class="st2" cx="891" cy="-1990.5" r="16.4"/>
<polyline class="st2" points="882.5,-1986.3 886.7,-1990.4 890.3,-1986.7 895.7,-1992.1 "/>
<polyline class="st2" points="890,-1994.2 898,-1994.2 898,-1987.1 "/>
<path class="st0" d="M225.9-1918.2c0,0,11.3,74.4,11.3,126.1c0,51.7,0,81.8,0,81.8l221,25.8"/>
<polyline class="st2" points="571.8,-912.4 588.9,-929.6 588.9,-883.2 602.7,-883.2 "/>
<polyline class="st2" points="644.8,-912.4 662,-929.6 662,-883.2 675.8,-883.2 "/>
<g>
	<path class="st0" d="M200.9-856c0,0-48.5,23-48,35.3s5.5,128.3,30.1,125.7c24.6-2.7,99.8-33.9,99.8-33.9s31.8-8.8,32.3-15
		c0.5-6.2,0-10.6,0-10.6s17.7-7.7,17.7-10.2c0-2.6-10.5-2.8-14.5-0.5c-4.1,2.3-4.8,3.8-9.2,3.8s-15.6,4.6-15.6,4.6"/>
	<path class="st0" d="M193.1-785.2c0,0,6.5,42.3,6.1,51.5l73.3-20.1c0,0,16.9-13.3,25.7-9.7"/>
	<path class="st0" d="M176.7-672.1c0,0-2.4,26.6-2.4,45.3s-4,37.4,0,50.4c5.1,16.2,3,75.9,3,75.9l-5.2,11l1.2,4.2v113.5
		c0,0,8.3,6.2,16.2,7c7.9,0.8,25.4-8.3,25.4-8.3s5.4-102.5,5.4-125.6c0-23.1,17-102.5,17-102.5"/>
	<path class="st0" d="M234.5-531.4l1.1,12.8l-3.6,3.6l1.8,4.7V-410c0,0,0,0,14.3,5.6c14.3,5.6,30.5-5.6,30.5-5.6v-98.8L289.2-630
		c0,0-19.2,19.4-78.1,18.5c0,0,65-8.9,74.6-25.6c4.7-8.3,0.3-10.4,0.3-53c0-17.4-1-32.5-1-32.5"/>
	<path class="st0" d="M200.9-856c0,0,2.6-19.1-4.7-31.8c-7.3-12.7-12.7-27.3-7.3-44.1s12.9-17.9,12.9-17.9l-5-3.3
		c0,0,12.7-6.1,22-5.7c9.2,0.4,34.5,1.2,40.8,21.4c6.3,20.2,6.1,74-4.1,75.1s-16.3,0.2-23.3-15.3"/>
	<path class="st0" d="M283.5-856c0,0,14.2,54.3,14.5,62.8c0.3,8.5-3.3,26.7-3.3,26.7"/>
	<path class="st0" d="M198.8-842.8c0,0,61.7,41.6,67,76.4c0,0-5.9-70.8-14-86.7"/>
	<path class="st2" d="M248.1-830c0,0-0.4-8.5-7.6-6.2s1,8.4,4.4,10.5c3.4,2.2,10.2,11.1,10.2,11.1"/>
	<path class="st2" d="M211-692.2c0,0,0.9,21-3.2,30.4c-4.1,9.3-9.1,52-9.1,52"/>
	<path class="st2" d="M253.9-929.6c0,0-7.8,7.1-36.7,6.1l2.2,31c0,0-8.1-13-14.4-11.5c-6.4,1.5-3.2,16.4-3.2,16.4"/>
	<path class="st2" d="M173.9-362.5c0,0-3.5,30.5-1.7,32.9c1.7,2.5,24.8,13.2,32.6,10.7c7.8-2.5-2-39.5-2-39.5"/>
	<path class="st2" d="M232.1-402.8c0,0-4.6,13.6,0,16.1c4.6,2.5,18,2.5,18,2.5s8.6,18.7,46.6,19.3c0,0,12.7-0.7,10.6-6.6
		s-31-19.6-32.9-29.1"/>
	<path class="st2" d="M277.3-878.9l20.9-9.7c0,0-18.5,16.9-17,23.5"/>
	<path class="st0" d="M310.2-998.8c0,0,0.6-11.7,4.8-10.4c0,0,13-9.3,18.5-9.3c5.6,0,10.1-0.4,9.9,14.1c0,0-11.5,21.5-16.6,10.8
		c-5.1-10.8-10-8.6-10-8.6"/>
	<line class="st2" x1="315" y1="-988" x2="315" y2="-788.9"/>
	<polyline class="st2" points="315,-717.2 315,-559.7 516.3,-681.4 516.3,-1103.6 395.5,-1034.1 	"/>
	<line class="st0" x1="342.6" y1="-960.8" x2="436.3" y2="-1014.6"/>
	<line class="st0" x1="342.6" y1="-917.2" x2="493.7" y2="-1003.9"/>
	<line class="st0" x1="342.6" y1="-842.7" x2="493.7" y2="-929.4"/>
	<line class="st0" x1="342.6" y1="-795.2" x2="442.1" y2="-852.3"/>
	<line class="st0" x1="342.6" y1="-771.4" x2="442.1" y2="-828.5"/>
	<line class="st0" x1="342.6" y1="-718.5" x2="493.7" y2="-805.2"/>
	<line class="st0" x1="342.6" y1="-672.7" x2="480.5" y2="-751.8"/>
	<line class="st0" x1="342.6" y1="-646" x2="442.1" y2="-703.1"/>
	<polyline class="st2" points="315,-527.8 315,-400.1 516.3,-527.8 516.3,-658.9 	"/>
</g>
<ellipse class="st2" cx="623.8" cy="-906.4" rx="16.6" ry="23.2"/>
<line class="st2" x1="573.4" y1="-989.3" x2="573.4" y2="-949.1"/>
<line class="st2" x1="605.7" y1="-989.3" x2="605.7" y2="-949.1"/>
<line class="st2" x1="573.4" y1="-969.2" x2="605.7" y2="-969.2"/>
<line class="st2" x1="628.4" y1="-969.2" x2="645.7" y2="-969.2"/>
<polyline class="st2" points="619.3,-949.1 636.8,-989.3 655.8,-949.1 "/>
<line class="st2" x1="779.9" y1="-969.2" x2="797.2" y2="-969.2"/>
<polyline class="st2" points="770.8,-949.1 788.3,-989.3 807.3,-949.1 "/>
<polyline class="st2" points="708.5,-949.1 721,-989.3 734.6,-964.4 "/>
<polyline class="st2" points="734.6,-964.4 747.1,-989.3 760.7,-949.1 "/>
<polyline class="st2" points="666.3,-989.3 698,-989.3 666.3,-949.1 698,-949.1 "/>
<line class="st2" x1="813.2" y1="-989.3" x2="844.7" y2="-989.3"/>
<line class="st2" x1="829" y1="-989.3" x2="829" y2="-949.1"/>
<line class="st2" x1="96.4" y1="-2013.7" x2="96.4" y2="-1768.6"/>
</svg>
