<svg id="Layer_1" data-name="Layer 1" xmlns="http://www.w3.org/2000/svg" viewBox="0 0 949.22 972">
    <defs>
        <style>.cls-1,.cls-2,.cls-3{fill:none;stroke-linecap:round;stroke-miterlimit:10;}.cls-1,.cls-2{stroke:#008082;}.cls-1{stroke-width:4px;}.cls-2,.cls-3{stroke-width:3px;}.cls-3{stroke:#00bfbf;}</style>
    </defs>
    <title>peace begin</title>
    <path class="cls-1" d="M331,652.73c1.77-26.47,21.77-45.29,37.73-59.8"/>
    <path class="cls-2" d="M928,164.66s-28.58,28.08-22.37,21.87S886.86,205,886.86,205s-68.32,59.91-80,66.79c-18.18,10.7-40.41,3.22-73.22,29.07"/>
    <path class="cls-2" d="M869.66,60.57s-34.39,36.31-38.94,45.84"/>
    <path class="cls-2" d="M869.66,60.57s-35.79,39-38.94,45.84"/>
    <path class="cls-3" d="M68.75,743.78s-34.67,3.49-52.82,0"/>
    <path class="cls-3" d="M68.75,743.78s-34.67,3.49-52.82,0"/>
    <path class="cls-3" d="M68.75,743.78s-34.67,3.49-52.82,0"/>
    <path class="cls-3" d="M68.75,743.78s-34.67,3.49-52.82,0"/>
    <path class="cls-3" d="M504.75,463.07s90.39,51.6,90.39,163.85"/>
    <path class="cls-3" d="M556,647.68s-2.94,26.84-23.68,64c-16.22,28.81-17.44,53.17-2.31,108.83"/>
    <path class="cls-3" d="M68.75,743.78s-34.67,3.49-52.82,0"/>
    <path class="cls-3" d="M68.75,743.78s-34.67,3.49-52.82,0"/>
    <path class="cls-3" d="M68.75,743.78s-34.67,3.49-52.82,0"/>
</svg>