<?xml version="1.0" encoding="utf-8"?>
<!-- Generator: Adobe Illustrator 23.0.4, SVG Export Plug-In . SVG Version: 6.00 Build 0)  -->
<svg version="1.1" id="Layer_1" xmlns="http://www.w3.org/2000/svg" xmlns:xlink="http://www.w3.org/1999/xlink" x="0px" y="0px"
	 viewBox="0 0 949.2 972" style="enable-background:new 0 0 949.2 972;" xml:space="preserve">
<style type="text/css">
	.st0{fill:none;stroke:#008082;stroke-width:4;stroke-linecap:round;stroke-miterlimit:10;}
	.st1{fill:none;stroke:#008082;stroke-width:3;stroke-linecap:round;stroke-miterlimit:10;}
	.st2{fill:none;stroke:#00BFBF;stroke-width:3;stroke-linecap:round;stroke-miterlimit:10;}
</style>
<title>peace</title>
<path class="st0" d="M-826.8,652.7c1.8-26.5,21.8-45.3,37.7-59.8"/>
<path class="st1" d="M-229.8,164.7c0,0-28.6,28.1-22.4,21.9s-18.8,18.5-18.8,18.5s-68.3,59.9-80,66.8c-18.2,10.7-40.4,3.2-73.2,29.1
	"/>
<path class="st1" d="M-288.1,60.6c0,0-34.4,36.3-38.9,45.8"/>
<path class="st1" d="M-288.1,60.6c0,0-35.8,39-38.9,45.8"/>
<path class="st2" d="M-1089,743.8c0,0-33.9,8-52.8,0"/>
<path class="st2" d="M-1089,743.8c0,0-32.2,7.8-52.8,0"/>
<path class="st2" d="M-1089,743.8c0,0-32.2,7.1-52.8,0"/>
<path class="st2" d="M-1089,743.8c0,0-29.1,7.3-52.8,0"/>
<path class="st2" d="M-653,463.1c0,0,90.4,51.6,90.4,163.9"/>
<path class="st2" d="M-601.8,647.7c0,0-2.9,26.8-23.7,64c-16.2,28.8-17.4,53.2-2.3,108.8"/>
<path class="st2" d="M-1141.9,743.8c0,0,19.5,6.6,52.8,0"/>
<path class="st2" d="M-1089,743.8c0,0-28.5,5.4-52.8,0"/>
<path class="st2" d="M-1089,743.8c0,0-34.7,3.5-52.8,0"/>
<path class="st0" d="M331,652.7c1.8-26.5,21.8-45.3,37.7-59.8s47.9-79.8,60.3-95.9s32.4-25.1,43.9-33.6s38-41,61.5-39.9
	c23.4,1.1,39.5,30.9,33.8,63c-7,38.8-73.3,83.3-76.4,85.1s-16.1,22.3-19.1,33.4s18.5,8.2,23.1,35.2s13.8,136.1-2.3,171.5
	s-123,56.1-143,36.9s-34.6-123-40-153s0-85.3,3.8-104.6s18.5-66.9,17.9-94.1S301.3,350.2,297.1,335s-12.8-125.9-13.4-144.9
	S287,131,324.4,130s36.4,74.9,39,97S375,290.3,394,361.5s55.8,75.5,60.7,74.2s16.1-99.8,21.3-128.8s34.4-112.3,45.3-153.4
	c10.9-41.1,33.5-57.6,64.3-40.1s-10.7,136.5-15.4,169.2S556,369,556,369c19.9-9,47.2-3.2,62.5,13.2s4.8,65.3,4.8,65.3
	c15.4,1.5,26.9,10,33.8,38.4c6.9,28.4,10.1,119.3,7.5,172.6s-63.7,195.5-63.7,195.5s-7.8,17.3-41,9.4"/>
<path class="st1" d="M648.1,557.2c0,0-36.9,1.4-30.7-4.8s28.3-36.9,28.3-36.9s-68.3,59.9-80,66.8c-18.2,10.7-48.2,28.6-56.7-12.1"/>
<path class="st1" d="M549.3,374.5c0,0-34.4,36.3-38.9,45.8"/>
<path class="st1" d="M607.9,446.8c0,0-27.3,9.5-30.4,16.3"/>
<path class="st2" d="M370.5,408.2c0,0-24.3,12.1-28.1,19.2"/>
<path class="st2" d="M331.5,311c0,0-12.1,6.4-18.5,12.8"/>
<path class="st2" d="M337.2,215.8c0,0-26,5.6-32.8,4.9"/>
<path class="st2" d="M549.3,212.9c0,0-25.9-2.1-29.5-5.7"/>
<path class="st2" d="M504.8,463.1c0,0,6.8,43.5,55.1-1"/>
<path class="st2" d="M556,528.8c0,0,15.4,13.1,3,26c-7.9,8-16.5,15.1-25.9,21.2"/>
<path class="st2" d="M517,292.5c0,0,22.4,9,31.5,7.8"/>
<path class="st2" d="M459.8,639.1c0,0-21,54.8-44.1,78.6"/>
<path class="st2" d="M449.8,641.6c0,0-42.6,42.2-59.4,47.1"/>
<path class="st0" d="M1576.2,652.7c1.8-26.5,21.8-45.3,37.7-59.8c16-14.5,47.9-79.8,60.3-95.9c12.4-16.1,32.4-25.1,43.9-33.6
	s38-41,61.5-39.9s39.6,30.9,33.8,63c-7,38.8-73.3,83.3-76.4,85.1s-16.1,22.3-19.1,33.4s18.5,8.2,23.1,35.2s13.8,136.1-2.3,171.5
	s-123,56.1-143,36.9s-34.6-123-40-153s0-85.3,3.8-104.6c3.8-19.2,18.5-66.9,17.9-94.1s-30.9-146.6-35.1-161.8
	c-4.2-15.2-12.8-125.9-13.4-144.9c-0.5-19,3.2-59.1,40.6-60.1s36.4,74.9,39,97s11.6,63.3,30.6,134.5s55.8,75.5,60.7,74.2
	s16.1-99.8,21.3-128.8c5.2-29.1,34.3-112.3,45.3-153.4s33.5-57.6,64.3-40.1c30.8,17.6-10.7,136.5-15.4,169.2s-14.2,86.4-14.2,86.4
	c19.9-9,47.2-3.2,62.5,13.2c15.3,16.4,4.8,65.3,4.8,65.3c15.4,1.5,26.9,10,33.8,38.4c6.9,28.4,10.1,119.3,7.5,172.6
	s-63.7,195.5-63.7,195.5s-7.8,17.3-41,9.4"/>
<path class="st1" d="M1893.3,557.2c0,0-36.9,1.4-30.7-4.8s28.3-36.9,28.3-36.9s-68.3,59.9-80,66.8c-18.2,10.7-48.2,28.6-56.7-12.1"
	/>
<path class="st1" d="M1794.6,374.5c0,0-34.4,36.3-38.9,45.8"/>
<path class="st1" d="M1853.1,446.8c0,0-27.3,9.5-30.4,16.3"/>
<path class="st2" d="M1615.7,408.2c0,0-24.3,12.1-28.1,19.2"/>
<path class="st2" d="M1576.7,311c0,0-12.2,6.4-18.5,12.8"/>
<path class="st2" d="M1582.5,215.8c0,0-26,5.6-32.8,4.9"/>
<path class="st2" d="M1794.6,212.9c0,0-25.9-2.1-29.5-5.7"/>
<path class="st2" d="M1750,463.1c0,0,6.8,43.5,55.1-1"/>
<path class="st2" d="M1801.2,528.8c0,0,15.4,13.1,3,26c-7.9,8-16.5,15.1-25.9,21.2"/>
<path class="st2" d="M1762.2,292.5c0,0,22.4,9,31.5,7.8"/>
<path class="st2" d="M1705,639.1c0,0-21,54.8-44.1,78.6"/>
<path class="st2" d="M1695,641.6c0,0-42.6,42.2-59.4,47.1"/>
</svg>
