<svg id="Layer_1" data-name="Layer 1" xmlns="http://www.w3.org/2000/svg" viewBox="0 0 949.2 972">
  <defs>
    <style>.cls-1,.cls-2{fill:none;stroke-linecap:round;stroke-miterlimit:10;}.cls-1{stroke:#00bfbf;stroke-width:3px;}.cls-2{stroke:#008082;stroke-width:4px;}</style>
  </defs>
  <title>Training</title>
  <polyline class="cls-1" points="571.76 256.09 588.9 238.96 588.9 285.35 602.69 285.35"/>
  <polyline class="cls-1" points="644.82 256.09 661.96 238.96 661.96 285.35 675.75 285.35"/>
  <path class="cls-2" d="M200.91,312.51s-48.48,23-48,35.26S158.44,476.12,183,473.45s99.82-33.94,99.82-33.94,31.8-8.82,32.32-15a59.72,59.72,0,0,0,0-10.62s17.66-7.66,17.66-10.21-10.46-2.81-14.54-.51-4.85,3.83-9.19,3.83-15.57,4.59-15.57,4.59"/>
  <path class="cls-2" d="M193.14,383.29s6.54,42.31,6.1,51.46l73.31-20.05s16.95-13.32,25.67-9.69"/>
  <path class="cls-2" d="M176.7,496.38s-2.39,26.61-2.39,45.29-4,37.41,0,50.35c5.06,16.21,3,75.86,3,75.86l-5.22,11,1.25,4.23V796.57s8.29,6.24,16.21,7S215,795.32,215,795.32s5.4-102.48,5.4-125.59,17-102.48,17-102.48"/>
  <path class="cls-2" d="M234.52,637.12,235.65,650,232,653.57l1.84,4.7V758.54l14.3,5.59c14.29,5.6,30.45-5.59,30.45-5.59V659.71L289.19,538.5S270,557.87,211.05,557c0,0,65-8.91,74.55-25.63,4.72-8.29.34-10.4.29-53,0-17.43-1-32.46-1-32.46"/>
  <path class="cls-2" d="M200.91,312.51s2.57-19.07-4.71-31.82-12.75-27.31-7.29-44.06,13-17.92,13-17.92l-5.05-3.33s12.75-6.08,22-5.69,34.5,1.18,40.77,21.37,6.08,74-4.11,75.12-16.27.15-23.33-15.33"/>
  <path class="cls-2" d="M283.48,312.51s14.19,54.33,14.51,62.84-3.29,26.71-3.29,26.71"/>
  <path class="cls-2" d="M198.77,325.68s61.67,41.57,67,76.38c0,0-5.92-70.77-14-86.66"/>
  <path class="cls-1" d="M248.11,338.5s-.4-8.5-7.56-6.21,1,8.37,4.4,10.53,10.19,11.06,10.19,11.06"/>
  <path class="cls-1" d="M211.05,476.3s.92,21-3.16,30.36-9.12,52-9.12,52"/>
  <path class="cls-1" d="M253.9,239s-7.81,7.08-36.65,6.1l2.2,31s-8.06-13-14.41-11.49S201.86,281,201.86,281"/>
  <path class="cls-1" d="M173.87,806s-3.48,30.46-1.74,32.93,24.76,13.17,32.6,10.7-2-39.52-2-39.52"/>
  <path class="cls-1" d="M232.11,765.7s-4.65,13.58,0,16.12,18,2.53,18,2.53,8.59,18.72,46.61,19.29c0,0,12.67-.7,10.56-6.62s-31.05-19.64-33-29.14"/>
  <path class="cls-1" d="M277.28,289.65,298.22,280s-18.46,16.88-17,23.48"/>
  <path class="cls-2" d="M310.18,169.71s.56-11.68,4.82-10.38c0,0,13-9.28,18.54-9.28s10.1-.37,9.87,14.1c0,0-11.48,21.51-16.61,10.75s-10-8.62-10-8.62"/>
  <line class="cls-1" x1="314.99" y1="180.53" x2="314.99" y2="379.66"/>
  <polyline class="cls-1" points="314.99 451.32 314.99 608.85 516.27 487.14 516.27 64.88 395.53 134.43"/>
  <line class="cls-2" x1="342.59" y1="207.68" x2="436.26" y2="153.96"/>
  <line class="cls-2" x1="342.59" y1="251.31" x2="493.69" y2="164.64"/>
  <line class="cls-2" x1="342.59" y1="325.81" x2="493.69" y2="239.15"/>
  <line class="cls-2" x1="342.59" y1="373.28" x2="442.11" y2="316.2"/>
  <line class="cls-2" x1="342.59" y1="397.12" x2="442.11" y2="340.03"/>
  <line class="cls-2" x1="342.59" y1="449.99" x2="493.69" y2="363.33"/>
  <line class="cls-2" x1="342.59" y1="495.82" x2="480.51" y2="416.72"/>
  <line class="cls-2" x1="342.59" y1="522.5" x2="442.11" y2="465.42"/>
  <polyline class="cls-1" points="314.99 640.69 314.99 768.42 516.27 640.69 516.27 509.59"/>
  <ellipse class="cls-1" cx="623.76" cy="262.15" rx="16.63" ry="23.2"/>
  <line class="cls-1" x1="573.35" y1="179.22" x2="573.35" y2="219.43"/>
  <line class="cls-1" x1="605.69" y1="179.22" x2="605.69" y2="219.43"/>
  <line class="cls-1" x1="573.35" y1="199.32" x2="605.69" y2="199.32"/>
  <line class="cls-1" x1="628.37" y1="199.32" x2="645.7" y2="199.32"/>
  <polyline class="cls-1" points="619.32 219.43 636.81 179.22 655.78 219.43"/>
  <line class="cls-1" x1="779.88" y1="199.32" x2="797.21" y2="199.32"/>
  <polyline class="cls-1" points="770.83 219.43 788.32 179.22 807.29 219.43"/>
  <polyline class="cls-1" points="708.53 219.43 721.04 179.22 734.62 204.14"/>
  <polyline class="cls-1" points="734.62 204.14 747.13 179.22 760.71 219.43"/>
  <polyline class="cls-1" points="666.31 179.22 698 179.22 666.31 219.43 698 219.43"/>
  <line class="cls-1" x1="813.22" y1="179.22" x2="844.7" y2="179.22"/>
  <line class="cls-1" x1="828.96" y1="179.22" x2="828.96" y2="219.43"/>
</svg>