<svg id="Layer_1" data-name="Layer 1" xmlns="http://www.w3.org/2000/svg" viewBox="0 0 949.2 972">
                <defs>
                  <style>.cls-1,.cls-2{fill:none;stroke-linecap:round;stroke-miterlimit:10;}.cls-1{stroke:#008082;stroke-width:4px;}.cls-2{stroke:#00bfbf;stroke-width:3px;}.cls-3{fill:#fff;}</style>
                </defs>
                <title>Watch List</title>
                <path class="cls-2" d="M209,324.05l3.52,301.16,247.75,28.15s.32,49.57.32,54.15,3.73,12.8,18.55,12.8c10,0,10.69-22.26,18-41.35,6.8-17.82,28.39-48.84,53.66-48.84,39.23,0,59.73,29,67.34,53.29,2.77,8.83,20.61,12.45,40.55,12.45,31,0,245.83-2.52,245.83-14.25s3.83-52.35-11.09-67.38-30.81-18.55-30.81-30.59V529.27s1.71-18.55-30.17-18.55h-91s-32.84-3.84-32.84,19.51V655"/>
                <path class="cls-2" d="M692.36,513.06,472,497.71l-13.85-81.66L639.7,421l18,65.88s-149-6.93-175.36-3.52"/>
                <path class="cls-2" d="M772.74,510.72S684.1,502,676.42,490.14s-20.65-68.46-20.65-68.46,14.42-7.87,7.49-25.14S642.47,379.91,632,373s-35.39-65.13-89.44-86.67C488.64,265,383.2,261.58,383.2,261.58"/>
                <path class="cls-2" d="M213.52,638.53s-8.79,45.46,16.16,51.31,184.83,25,207.89,26.09"/>
                <path class="cls-1" d="M322.65,579.56V429.8s13.11-13.11,13.11-38.27V232.05s-14.71-11.51-10.34-18.55,16.42-6.5,21.32,0,10.88,18,10.88,28.36V391.53l14.49,20.68V589.5s-17.59,8.42-14.49,14.5"/>
                <path class="cls-1" d="M599.29,314.24V251.13s-3.2-19.51-14.92-21.21-14,9.17-11.73,12S578,252.63,578,268.51v27"/>
                <path class="cls-2" d="M416.57,416.05H383.2V608.41S454.13,617,461.06,617V539.13L444.61,506.2,428.4,416.05Z"/>
                <path class="cls-1" d="M636.48,699.73s7.91,43.18,27.31,47.76,223.55,1.07,233.79-18.23,7.73-40.38,7.73-40.38"/>
                <path class="cls-2" d="M208.83,294c0-44.41,72.88-32.46,72.88-32.46L135.77,245.8,17.86,294S136.3,247.4,136.3,264.67v327.8s44.46-10.87,62.9,0-26.43,18-154.68,0"/>
                <path class="cls-1" d="M678.13,257.74h51.24v19s-31.08,16.57-31.08,53.62"/>
                <path class="cls-1" d="M743.29,300.7s1.06,29.64,30.93,29.64c18.75,0,30.93-11.34,30.93-25.86,0-10.44-4.84-26.62-35.17-25.64A32.71,32.71,0,0,0,747.75,289l-.23-31.23h48.93"/>
                <path class="cls-2" d="M679.59,357.89s-2.5-7.93,8.81-7.93c9,0,9.64,3.73,9.64,5.64,0,7.93-18.74,6.4-18.74,16.09h20.11"/>
                <polyline class="cls-2" points="702.16 358.03 710.06 350.13 710.06 371.51 716.41 371.51"/>
                <line class="cls-2" x1="729.35" y1="371.69" x2="743.17" y2="353.62"/>
                <path class="cls-2" d="M727.59,360.45a4.26,4.26,0,0,0,3.44-.23c1.15-.59,2.64-1.56,2.64-2.69a4,4,0,0,0-3.95-3.91,4.28,4.28,0,0,0-4.1,3.95A2.91,2.91,0,0,0,727.59,360.45Z"/>
                <path class="cls-2" d="M741.12,371.43a4.22,4.22,0,0,0,3.44-.24c1.15-.58,2.63-1.55,2.63-2.69a4,4,0,0,0-4-3.9,4.27,4.27,0,0,0-4.09,3.95A2.91,2.91,0,0,0,741.12,371.43Z"/>
                <polyline class="cls-2" points="757.67 371.69 768.65 360.71 779.45 371.51"/>
                <ellipse class="cls-1" cx="556.89" cy="727.58" rx="59.78" ry="81.73"/>
                <ellipse class="cls-1" cx="138.62" cy="671.46" rx="42.2" ry="57.7"/>
                <ellipse class="cls-1" cx="60.53" cy="655.63" rx="30.62" ry="41.86"/>
                <path class="cls-2" d="M842.08,529.71H739.49s-14-2.87-14,14v101.9s.6,9.76,9.75,9.76,106.88-4.75,106.88-4.75"/>
                <path class="cls-1" d="M886.1,743.82s-15.47,46.66-48.37,46.66-45.13-36.71-45.13-36.71"/>
                <line class="cls-2" x1="842.08" y1="545.63" x2="740.26" y2="545.63"/>
                <line class="cls-2" x1="842.08" y1="559.99" x2="740.26" y2="559.99"/>
                <line class="cls-2" x1="842.08" y1="592.47" x2="740.26" y2="595.5"/>
                <line class="cls-2" x1="842.08" y1="616.08" x2="740.26" y2="619.82"/>
                <path class="cls-2" d="M498.15,655.63S516.83,604,532.83,604h85.3"/>
                <path class="cls-2" d="M327.58,648.9s-10.54,23.46-1.17,45.23"/>
                <path class="cls-2" d="M335.47,651.7s-9.93,23.73,0,45.25"/>
                <path class="cls-2" d="M247.1,637.59s-10.55,23.46-1.17,45.23"/>
                <path class="cls-2" d="M255,640.39s-9.94,23.73,0,45.24"/>
                <path class="cls-2" d="M410.93,658.81s-10.55,23.46-1.17,45.23"/>
                <path class="cls-2" d="M418.82,661.61s-9.94,23.73,0,45.24"/>
                <circle class="cls-2" cx="861.05" cy="295.19" r="37.45"/>
                <circle class="cls-2" cx="861.2" cy="286.52" r="10.18"/>
                <path class="cls-2" d="M844,314s2.82-13.46,17.22-13.46,18,13.46,18,13.46"/>
                <circle class="cls-3" cx="890.98" cy="323.77" r="23.2"/>
                <circle class="cls-2" cx="890.98" cy="323.77" r="16.4"/>
                <polyline class="cls-2" points="882.54 328 886.65 323.88 890.29 327.52 895.67 322.15"/>
                <polyline class="cls-2" points="889.96 320.11 897.99 320.11 897.99 327.17"/>
                <path class="cls-1" d="M225.88,396.11s11.3,74.38,11.3,126.07V604l221,25.81"/>
                <line class="cls-2" x1="96.42" y1="300.58" x2="96.42" y2="545.63"/>
              </svg>